<svg xmlns="http://www.w3.org/2000/svg" viewBox="0 0 1400 875"><defs><linearGradient id="g" x1="0" x2="1" y1="0" y2="1"><stop stop-color="#151922"/><stop offset="1" stop-color="#090a0d"/></linearGradient><radialGradient id="r"><stop stop-color="#ff5a36" stop-opacity=".35"/><stop offset="1" stop-color="#ff5a36" stop-opacity="0"/></radialGradient></defs><rect width="1400" height="875" fill="url(#g)"/><circle cx="1080" cy="170" r="360" fill="url(#r)"/><g fill="none" stroke="#ffffff" stroke-opacity=".08"><path d="M0 120h1400M0 240h1400M0 360h1400M0 480h1400M0 600h1400M0 720h1400"/><path d="M140 0v875M280 0v875M420 0v875M560 0v875M700 0v875M840 0v875M980 0v875M1120 0v875M1260 0v875"/></g><text x="100" y="390" fill="#ff5a36" font-family="Arial" font-weight="700" font-size="28" letter-spacing="5">PROJECT PREVIEW</text><text x="100" y="490" fill="#ffffff" font-family="Arial" font-weight="800" font-size="72">IDENTITY CENTER</text><text x="100" y="550" fill="#9b9da6" font-family="Arial" font-size="28">WordPress Website</text><rect x="100" y="620" rx="26" width="255" height="52" fill="#ff5a36"/><text x="132" y="654" fill="#ffffff" font-family="Arial" font-weight="700" font-size="18">LIVE SITE AVAILABLE ↗</text></svg>